{"title":"Saturday.Night.Live.S02.DVDRip.XviD-DIMENSION","uid":13260297,"size":16862351360,"categoryP":"video","categoryS":"tv_shows","magnet":"?xt=urn:btih:ea3eff520f9bf48f411fccd93e33d5a5ecf5723d&amp;dn=Saturday.Night.Live.S02.DVDRip.XviD-DIMENSION&amp;tr=udp%3A%2F%2Ftracker.leechers-paradise.org%3A6969&amp;tr=udp%3A%2F%2Fzer0day.ch%3A1337&amp;tr=udp%3A%2F%2Fopen.demonii.com%3A1337&amp;tr=udp%3A%2F%2Ftracker.coppersurfer.tk%3A6969&amp;tr=udp%3A%2F%2Fexodus.desync.com%3A6969","seeders":1,"leechers":0,"uploader":"imPROvise","files":24,"time":1453262703,"description":"1 Lily Tomlin/James Taylor 1976-09-18\r\n2 Norman Lear/Boz Scaggs 1976-09-25\r\n3 Eric Idle/Joe Cocker &amp; Stuff 1976-10-02\r\n4 Karen Black/John Prine 1976-10-16\r\n5 Steve Martin/Kinky Friedman 1976-10-23\r\n6 Buck Henry/The Band 1976-10-30\r\n7 Dick Cavett/Ry Cooder 1976-11-13\r\n8 Paul Simon/George Harrison 1976-11-20\r\n9 Jodie Foster/Brian Wilson 1976-11-27\r\n10 Candice Bergen/Frank Zappa 1976-12-11\r\n11 Ralph Nader/George Benson 1977-01-15\r\n12 Ruth Gordon/Chuck Berry 1977-01-22\r\n13 Fran Tarkenton/Leo Sayer 1977-01-29\r\nSpecial Live from Mardi Gras 1977-02-20\r\n14 Steve Martin/The Kinks 1977-02-26\r\n15 Sissy Spacek/Richard Baskin 1977-03-12\r\n16 Broderick Crawford/Dr. John, The Meters 1977-03-19\r\n17 Jack Burns/Santana 1977-03-26\r\n18 Julian Bond/Brick/Tom Waits 1977-04-09\r\n19 Elliott Gould/McGarrigle Sisters 1977-04-16\r\n20 Eric Idle/Neil Innes 1977-04-23\r\n21 Shelley Duvall/Joan Armatrading 1977-05-14\r\n22 Buck Henry/Kenny Vance, Jennifer Warnes 1977-05-21\r\n\r\nFormat: AVI\r\nFormat/Info: Audio Video Interleave\r\nFile size: 701 MiB\r\nDuration: 1h 6mn\r\nOverall bit rate mode: Variable\r\nOverall bit rate: 1 479 Kbps\r\nWriting application: VirtualDubMod 1.5.10.2 (build 2540/release)\r\nWriting library: VirtualDubMod build 2540/release\r\n\r\nVideo\r\nID: 0\r\nFormat: MPEG-4 Visual\r\nFormat profile: Advanced   \r\nFormat settings, BVOP: 2\r\nFormat settings, QPel: No\r\nFormat settings, GMC: No warppoints\r\nFormat settings, Matrix: Default (H.263)\r\nCodec ID: XVID\r\nCodec ID/Hint: XviD\r\nDuration: 1h 6mn\r\nBit rate: 1 394 Kbps\r\nWidth: 512 pixels\r\nHeight: 384 pixels\r\nDisplay aspect ratio: 4:3\r\nFrame rate: 29.970 fps\r\nColor space: YUV\r\nChroma subsampling: 4:2:0\r\nBit depth: 8 bits\r\nScan type: Progressive\r\nCompression mode: Lossy\r\nBits/(Pixel*Frame): 0.237\r\nStream size: 660 MiB (94%)\r\nWriting library: XviD 1.1.2 (UTC 2006-11-01)\r\n\r\nAudio\r\nID: 1\r\nFormat: MPEG Audio\r\nFormat version: Version 1\r\nFormat profile: Layer 3\r\nCodec ID: 55\r\nCodec ID/Hint: MP3\r\nDuration: 1h 6mn\r\nBit rate mode: Variable\r\nBit rate: 75.0 Kbps\r\nChannel(s): 1 channel\r\nSampling rate: 48.0 KHz\r\nCompression mode: Lossy\r\nStream size: 34.0 MiB (5%)\r\nAlignment: Aligned on interleaves\r\nInterleave, duration: 24 ms (0.72 video frame)\r\nInterleave, preload duration: 567 ms\r\nWriting library: LAME3.90\r\nEncoding settings: -m m -V 4 -q 2 -lowpass 13.6 --abr 75","torrent":{"xt":"urn:btih:ea3eff520f9bf48f411fccd93e33d5a5ecf5723d","amp;dn":"Saturday.Night.Live.S02.DVDRip.XviD-DIMENSION","amp;tr":["udp%3A%2F%2Ftracker.leechers-paradise.org%3A6969","udp%3A%2F%2Fzer0day.ch%3A1337","udp%3A%2F%2Fopen.demonii.com%3A1337","udp%3A%2F%2Ftracker.coppersurfer.tk%3A6969","udp%3A%2F%2Fexodus.desync.com%3A6969"],"infoHash":"ea3eff520f9bf48f411fccd93e33d5a5ecf5723d","infoHashBuffer":{"type":"Buffer","data":[234,62,255,82,15,155,244,143,65,31,204,217,62,51,213,165,236,245,114,61]},"announce":[],"urlList":[]}}